<?xml version="1.0" encoding="UTF-8" standalone="no"?>
<svg
   xmlns:dc="http://purl.org/dc/elements/1.1/"
   xmlns:cc="http://creativecommons.org/ns#"
   xmlns:rdf="http://www.w3.org/1999/02/22-rdf-syntax-ns#"
   xmlns:svg="http://www.w3.org/2000/svg"
   xmlns="http://www.w3.org/2000/svg"
   viewBox="0 0 1190.5601 523.59998"
   height="523.59998"
   width="1190.5601"
   xml:space="preserve"
   id="svg2"
   version="1.1"><metadata
     id="metadata8"><rdf:RDF><cc:Work
         rdf:about=""><dc:format>image/svg+xml</dc:format><dc:type
           rdf:resource="http://purl.org/dc/dcmitype/StillImage" /></cc:Work></rdf:RDF></metadata><defs
     id="defs6" /><g
     transform="matrix(1.3333333,0,0,-1.3333333,0,523.6)"
     id="g10"><g
       transform="scale(0.1)"
       id="g12"><path
         id="path14"
         style="fill:#3470ba;fill-opacity:1;fill-rule:nonzero;stroke:none"
         d="m 4874.8,1723.19 c -43.34,-101.12 -160.45,-147.96 -261.57,-104.62 -101.11,43.34 -147.95,160.45 -104.61,261.57 43.34,101.11 160.45,147.95 261.57,104.61 101.11,-43.34 147.95,-160.45 104.61,-261.56" /><path
         id="path16"
         style="fill:#68cef6;fill-opacity:1;fill-rule:nonzero;stroke:none"
         d="m 8921.56,3891.47 c -14.86,28.35 -47.85,42.02 -78.46,32.59 l -2794.82,-866.4 c -33.86,-10.51 -53.5,-45.75 -44.63,-80.07 7.73,-29.79 34.57,-49.77 64.24,-49.77 4.5,0 9.07,0.47 13.65,1.42 l 189.75,39.71 c 227.47,47.59 460.15,93.41 685.17,137.71 430.28,84.73 875.22,172.35 1307.31,276.95 132.1,31.98 210.8,88.03 299.95,157.98 l 340.02,266.8 c 25.2,19.77 32.7,54.72 17.82,83.08" /><path
         id="path18"
         style="fill:#68cef6;fill-opacity:1;fill-rule:nonzero;stroke:none"
         d="m 8384.11,1634.65 -87.58,-13.75 c -17.23,-2.93 -37.02,-6.13 -59.05,-9.7 -41.92,-6.79 -94.09,-15.23 -151.51,-25.53 l -637.65,-112.68 -635.57,-120.65 c -57.34,-10.75 -109.05,-21.33 -150.59,-29.83 -21.95,-4.49 -41.66,-8.53 -59.08,-11.95 l -79.35,-16.05 c -17.34,-3.54 -31.36,-16.9 -35.73,-34.02 -3.08,-12 -1.3,-24.49 5,-35.16 6.32,-10.71 16.43,-18.3 28.55,-21.4 l 3.55,-0.91 c 0,0 8.71,-2.25 25.98,-5.45 4.33,-0.67 9.34,-1.63 14.99,-2.69 13.28,-2.5 29.81,-5.61 48.65,-7.67 l 16.86,-2.2 c 23.86,-3.15 50.91,-6.71 81.05,-9.06 38.24,-3.28 80.54,-5.68 125.91,-7.11 24.34,-0.68 49.7,-1.04 75.92,-1.04 23.01,0 46.69,0.28 71.07,0.9 59.91,1.74 112.96,4.61 161.37,8.68 28.14,1.8 56.71,4.88 85.31,7.98 25.86,2.59 56.47,5.85 86.45,10.31 51.61,6.35 103.95,15.2 154.58,23.76 l 47.54,8.76 c 48.62,9.54 98.88,19.41 147.18,31.23 l 43.28,10.03 57.95,15.27 c 21.82,5.73 44.39,11.64 65.64,18.23 47.89,13.71 98.48,29.83 154.86,49.32 46.54,16.35 92.71,33.93 137.41,52.31 41.96,17.52 80.67,34.79 115.05,51.37 33.68,16.29 63.35,31.57 87.69,45.13 17.06,9.19 31.27,17.84 42.67,24.81 4.96,3.02 9.37,5.71 13.98,8.4 13.97,8.54 21.33,13.77 21.33,13.77 l 3.13,2.22 c 14.58,10.33 21.86,27.71 18.99,45.4 -3.69,22.58 -22.97,38.97 -45.83,38.97" /><path
         id="path20"
         style="fill:#68cef6;fill-opacity:1;fill-rule:nonzero;stroke:none"
         d="m 2805.7,2333.86 191.47,30.16 c 35.02,5.52 59.53,37.57 55.67,72.82 -3.87,35.24 -34.48,61.49 -70.12,59.05 L 62.2891,2314.97 C 30.332,2312.99 4.33984,2288.48 0.484375,2256.69 -3.36719,2224.89 16.0273,2194.87 46.5977,2185.32 L 459.148,2056.41 c 94.93,-29.65 166.61,-46.81 252.075,-46.82 27.437,0 55.043,1.8 84.406,5.48 441.141,55.42 888.261,131.26 1320.651,204.63 226.08,38.35 459.87,78.02 689.42,114.16" /><path
         id="path22"
         style="fill:#68cef6;fill-opacity:1;fill-rule:nonzero;stroke:none"
         d="m 3170.84,679.32 -87.54,-13.761 c -17.19,-2.918 -36.92,-6.118 -58.9,-9.68 -41.96,-6.797 -94.17,-15.258 -151.66,-25.539 L 2235.09,517.66 1599.5,397.02 c -57.41,-10.739 -109.18,-21.34 -150.79,-29.86 -21.86,-4.48 -41.52,-8.512 -58.89,-11.93 l -79.28,-16.05 c -25.07,-5.078 -41.37,-29.621 -36.31,-54.739 3.48,-17.25 16.73,-31.281 33.92,-35.793 l 3.61,-0.929 c 0,0 8.73,-2.278 25.72,-5.481 4.37,-0.707 9.39,-1.66 15.06,-2.718 13.17,-2.481 29.57,-5.551 48.3,-8.008 28.2,-4.141 61.36,-7.903 98.58,-11.192 37.91,-3.289 80.22,-5.718 125.94,-7.218 24.5,-0.692 50.01,-1.063 76.41,-1.063 22.86,0 46.37,0.281 70.64,0.883 59.49,1.769 112.51,4.637 161.26,8.738 22.97,1.41 46.15,3.879 68.54,6.27 l 60.85,6.422 42.4,5.769 c 49.73,6.098 100.12,14.688 148.85,22.988 l 48.04,8.75 c 50.33,9.942 102.36,20.231 151.9,32.352 30.49,6.68 60.28,14.48 86.07,21.41 26.98,7.027 54.88,14.289 81.17,22.399 47.46,13.57 98.08,29.71 154.84,49.371 46.28,16.218 92.47,33.781 137.43,52.257 41.69,17.344 80.39,34.582 114.74,51.102 27.62,13.012 51.63,25.922 72.81,37.309 l 14.49,7.781 c 17.45,8.898 31.79,17.672 43.31,24.711 4.91,3 9.26,5.668 14.08,8.418 13.97,8.511 21.31,13.691 21.29,13.691 l 3.09,2.16 c 10.17,7.149 16.95,17.84 19.08,30.11 2.12,12.261 -0.68,24.609 -7.72,34.539 -8.67,12.429 -22.92,19.851 -38.09,19.851" /><path
         id="path24"
         style="fill:#ffffff;fill-opacity:1;fill-rule:nonzero;stroke:none"
         d="m 6722.71,1606.08 c -35.24,-6.47 -72.94,11.14 -88.75,48.22 -15.15,35.51 -0.47,76.9 31.4,98.7 l 866.97,593.14 c 18.09,12.38 12.95,40.34 -8.36,45.46 l -1018.48,245 c -48.36,11.64 -75.88,64.82 -53.77,112.57 16.21,35.02 56.74,51.85 94.26,42.82 l 1422.05,-267.72 c 30.84,-7.41 54.43,-32.31 60.16,-63.51 5.74,-31.21 -7.43,-62.86 -33.61,-80.78 L 6753.52,1618.79 c -9.59,-6.56 -20.08,-10.75 -30.81,-12.71" /><path
         id="path26"
         style="fill:#ffffff;fill-opacity:1;fill-rule:nonzero;stroke:none"
         d="m 2866.85,899.492 c 35.24,6.449 64.25,36.278 65.89,76.559 1.57,38.569 -26.84,72.069 -64.36,81.149 l -1020.96,247.18 c -21.31,5.16 -26.41,33.12 -8.3,45.47 l 865.41,590.23 c 41.1,28.03 47.97,87.51 10.36,124.32 -27.57,26.99 -71.43,28.35 -103.31,6.61 L 1376.87,1316.44 c -26.22,-17.87 -39.44,-49.52 -33.74,-80.72 5.7,-31.22 29.24,-56.14 60.08,-63.62 L 2833.54,900.449 c 11.28,-2.73 22.58,-2.929 33.31,-0.957" /><path
         id="path28"
         style="fill:#ffffff;fill-opacity:1;fill-rule:nonzero;stroke:none"
         d="m 4713.98,1869.66 c 0,0 -1123.57,-1709.769 -743.89,-1861.49984 C 4349.76,-143.559 4713.98,1869.66 4713.98,1869.66" /><path
         id="path30"
         style="fill:#ffffff;fill-opacity:1;fill-rule:nonzero;stroke:none"
         d="m 4667.05,1752.22 c 0,0 1123.57,1709.77 743.89,1861.49 -379.67,151.73 -743.89,-1861.49 -743.89,-1861.49" /><path
         id="path32"
         style="fill:#68cef6;fill-opacity:1;fill-rule:nonzero;stroke:none"
         d="m 4692.34,338.371 c -41.91,0 -75.88,33.969 -75.88,75.879 0,41.91 33.97,75.891 75.88,75.891 722.46,0 1310.24,587.769 1310.24,1310.249 0,363.99 -153.31,714.61 -420.63,961.94 -30.75,28.47 -32.62,76.48 -4.15,107.25 28.44,30.74 76.46,32.62 107.23,4.16 298.26,-275.99 469.32,-667.2 469.32,-1073.35 0,-806.16 -655.86,-1462.019 -1462.01,-1462.019" /><path
         id="path34"
         style="fill:#68cef6;fill-opacity:1;fill-rule:nonzero;stroke:none"
         d="m 3753.89,704.328 c -18.38,0 -36.79,6.633 -51.37,20.051 -300.08,276.201 -472.19,668.391 -472.19,1076.011 0,806.16 655.86,1462.01 1462.01,1462.01 41.91,0 75.89,-33.98 75.89,-75.89 0,-41.9 -33.98,-75.88 -75.89,-75.88 -722.46,0 -1310.24,-587.78 -1310.24,-1310.24 0,-365.31 154.25,-716.8 423.2,-964.331 30.83,-28.387 32.83,-76.399 4.45,-107.239 -14.97,-16.238 -35.39,-24.492 -55.86,-24.492" /><path
         id="path36"
         style="fill:#ffffff;fill-opacity:1;fill-rule:nonzero;stroke:none"
         d="m 5000.54,1672.91 c -71,-170.36 -266.65,-250.9 -437,-179.9 -170.36,71 -250.9,266.65 -179.91,437.01 71,170.35 266.66,250.89 437.01,179.9 170.36,-71 250.9,-266.66 179.9,-437.01" /></g></g></svg>