<svg xmlns="http://www.w3.org/2000/svg" viewBox="0 0 24 24" enable-background="new 0 0 24 24" width="48" height="48">
    <path d="M12,2C6.5,2,2,6.5,2,12s4.5,10,10,10s10-4.5,10-10S17.5,2,12,2z M16.3,17c-0.2,0-0.3-0.1-0.5-0.2c-1.5-0.9-3.4-1.4-5.4-1.4 c-1.1,0-2.3,0.2-3.3,0.4c-0.2,0-0.4,0.1-0.5,0.1c-0.4,0-0.7-0.3-0.7-0.7c0-0.4,0.2-0.7,0.6-0.7c1.3-0.3,2.6-0.5,4-0.5 c2.3,0,4.4,0.6,6.2,1.6c0.2,0.2,0.4,0.3,0.4,0.7C16.9,16.8,16.6,17,16.3,17z M17.4,14.2c-0.2,0-0.4-0.1-0.6-0.2 c-1.7-1.1-4.1-1.7-6.7-1.7c-1.3,0-2.5,0.2-3.4,0.4c-0.2,0.1-0.3,0.1-0.5,0.1c-0.5,0-0.8-0.4-0.8-0.8c0-0.5,0.2-0.7,0.7-0.9 c1.2-0.3,2.4-0.6,4.1-0.6c2.8,0,5.4,0.7,7.6,2c0.3,0.2,0.5,0.5,0.5,0.8C18.2,13.8,17.9,14.2,17.4,14.2z M18.7,11 c-0.2,0-0.3-0.1-0.6-0.2c-2-1.1-4.9-1.8-7.7-1.8C9,9,7.5,9.2,6.2,9.5c-0.2,0-0.3,0.1-0.6,0.1c-0.6,0.1-1-0.4-1-1 c0-0.6,0.3-0.9,0.7-1C6.9,7.2,8.6,7,10.4,7c3.1,0,6.3,0.7,8.8,2c0.3,0.2,0.6,0.5,0.6,1C19.7,10.6,19.3,11,18.7,11z"/>
</svg>